<svg xmlns="http://www.w3.org/2000/svg" width="139.123" height="124.165"><defs><linearGradient id="a" x1=".392" y1=".559" x2=".885" y2="-.088" gradientUnits="objectBoundingBox"><stop offset="0" stop-color="#ecedef"/><stop offset="1" stop-color="#e7e8ea" stop-opacity="0"/></linearGradient></defs><g data-name="Group 12516"><g data-name="Iconly/Bold/Buy"><path data-name="Buy" d="M94.047 9.566a9.4 9.4 0 1018.8 0 9.4 9.4 0 10-18.8 0zm-69.788 0a9.4 9.4 0 1018.8 0 9.4 9.4 0 10-18.8 0zM34.68 29.211a15.575 15.575 0 00-10.717 4.274 16.238 16.238 0 00-5.04 10.544l-5.7 69.061-9.37 1.648a4.757 4.757 0 00.9 9.426 5.072 5.072 0 00.715-.056l14.8-2.274a4.767 4.767 0 003.844-4.308l1.179-14.192a3.829 3.829 0 013.783-3.554h83.779c3.649 0 6.185-1.229 8.75-4.246 2.933-3.442 2.738-8.3 2.358-10.89l-5.895-41.56a16.029 16.029 0 00-15.7-13.874zM70.6 71.593a4.708 4.708 0 014.654-4.749h17.178a4.708 4.708 0 014.654 4.749 4.656 4.656 0 01-4.654 4.755H75.251a4.656 4.656 0 01-4.651-4.755z" transform="rotate(180 62.082 62.083)" fill="url(#a)"/></g><path data-name="Path 11288" d="M71.345 51.583h67.778v67.778H71.345z" fill="none"/><path data-name="Path 11289" d="M125.002 110.945H85.465a5.647 5.647 0 01-5.648-5.648V88.239a5.647 5.647 0 015.648-5.648h39.537a5.647 5.647 0 015.648 5.648v17.06a5.646 5.646 0 01-5.648 5.646z" fill="#d21e27" fill-rule="evenodd"/><path data-name="Path 11291" d="M88.29 82.592l12.963-12.963" fill="none" stroke="#bf3037" stroke-linecap="round" stroke-linejoin="round" stroke-width="2.5"/><path data-name="Path 11292" d="M109.216 69.629l12.963 12.963" fill="none" stroke="#bf3037" stroke-linecap="round" stroke-linejoin="round" stroke-width="2.5"/><path data-name="Path 13255" d="M109.228 61.653a5.648 5.648 0 11-7.988 0 5.648 5.648 0 017.988 0" fill="#d21e27" fill-rule="evenodd"/></g></svg>