<svg data-name="Delivery, Shipment.1" xmlns="http://www.w3.org/2000/svg" width="24" height="24"><g data-name="Group 164" stroke="#565a64" stroke-linecap="round" stroke-linejoin="round" stroke-width="1.5"><path data-name="Path 13362" d="M21.839 6.783l-1.1-2.569A2 2 0 0018.9 3H9.1a2 2 0 00-1.841 1.214l-1.1 2.569" fill="#a0a3ad" opacity=".5"/><path data-name="Path 1762" d="M19 16h-2" fill="none"/><path data-name="Path 1763" d="M11 19h9a2 2 0 002-2V7.569a2 2 0 00-.161-.786l-1.1-2.569A2 2 0 0018.9 3H9.1a2 2 0 00-1.841 1.214l-1.1 2.569A2.006 2.006 0 006 7.569V11.1" fill="rgba(0,0,0,0)"/><path data-name="Path 1764" d="M14 3v4.44" fill="none"/><path data-name="Path 1765" d="M6.01 7.44H22" fill="none"/><path data-name="Path 13360" d="M9.504 13.006v2a2 2 0 01-2 2H2.517" fill="none"/><path data-name="Path 13361" d="M4.513 15.004l-2 2 2 2" fill="none"/></g><path data-name="Path 1768" d="M0 0h24v24H0z" fill="none"/></svg>