<svg xmlns="http://www.w3.org/2000/svg" width="98.167" height="118.583"><defs><linearGradient id="a" x1=".5" y1=".555" x2=".059" y2="1.051" gradientUnits="objectBoundingBox"><stop offset="0" stop-color="#ecedef"/><stop offset="1" stop-color="#ecedef" stop-opacity="0"/></linearGradient></defs><g data-name="Group 11047"><g data-name="Iconly/Bold/Profile"><path data-name="Profile" d="M0 78.042c0-12.814 17.353-16.013 37.667-16.013 20.429 0 37.667 3.318 37.667 16.124S57.982 94.166 37.667 94.166C17.242 94.166 0 90.848 0 78.042zm12.742-53.13a24.925 24.925 0 1124.925 24.917 24.831 24.831 0 01-24.925-24.917z" fill="url(#a)"/></g><g data-name="Iconly/Bold/Show"><path data-name="Show" d="M67.141 108.25c-10.667 0-20.258-7.454-25.656-19.942a1.872 1.872 0 010-1.476c5.391-12.471 14.982-19.916 25.656-19.916h.026a24.041 24.041 0 0114.82 5.285 36.774 36.774 0 0110.862 14.631 1.872 1.872 0 010 1.476c-5.4 12.488-15 19.942-25.682 19.942zM57.085 87.583a10.069 10.069 0 1010.082-10.021 10.05 10.05 0 00-10.082 10.021zm3.783 0a6.425 6.425 0 01.128-1.228h.126a5.159 5.159 0 005.166-4.962 5.139 5.139 0 01.881-.074 6.25 6.25 0 11-6.3 6.264z" fill="#07142c"/></g></g></svg>