<svg xmlns="http://www.w3.org/2000/svg" width="427.969" height="427.148"><path data-name="Path 13151" d="M163.394 17.618C66.08 17.618 0 121.718 0 213.985c0 111.878 85.86 203.683 195.278 213.163a179.583 179.583 0 01-80.859-245.955 159.425 159.425 0 00304.208 95.48 213.813 213.813 0 009.342-62.688C427.968 95.803 332.161.003 213.984.003c-3.106 0-6.194.079-9.266.211a90.458 90.458 0 0157.048 59.883 134.771 134.771 0 00-98.372-42.476zm131.992 101.233c30.706-20.965 70.215-5.038 88.247 35.578s7.753 90.532-22.957 111.5-70.211 5.038-88.243-35.578-7.753-90.535 22.953-111.5z" fill="#fff" fill-rule="evenodd" opacity=".1"/></svg>