<svg xmlns="http://www.w3.org/2000/svg" width="73.357" height="73.216"><path data-name="Path 13078" d="M28.007 3.02C11.327 3.02 0 20.864 0 36.679a36.681 36.681 0 0033.472 36.538 30.782 30.782 0 01-13.86-42.158 27.327 27.327 0 0052.143 16.365A36.7 36.7 0 0036.678.003c-.532 0-1.062.014-1.588.036a15.505 15.505 0 019.778 10.264 23.1 23.1 0 00-16.862-7.281zm22.624 17.352c5.263-3.594 12.035-.864 15.126 6.1s1.329 15.518-3.935 19.112-12.035.864-15.125-6.1-1.329-15.519 3.934-19.112z" fill="#fff" fill-rule="evenodd"/></svg>