<svg version="1.1" id="Layer_1" xmlns="http://www.w3.org/2000/svg" x="0" y="0" viewBox="0 0 24 24" xml:space="preserve"><style>.st1{fill:#565a64}</style><g id="Group_11209" transform="translate(-1105 -977)"><path id="Rectangle_2844" d="M1106 985h11c.6 0 1 .4 1 1v8c0 .6-.4 1-1 1h-11c-.6 0-1-.4-1-1v-8c0-.6.4-1 1-1z" opacity=".5" fill="#a0a3ad"/><g id="Delivery_Truck_Clock" transform="translate(1105 977)"><path class="st1" d="M21 21.1h-1.8c-.4 0-.8-.3-.8-.8s.3-.8.8-.8H21c.1 0 .3-.1.3-.3v-5.9c0-.2 0-.3-.1-.5l-1.6-4c0-.1-.1-.2-.2-.2H15c-.4 0-.8-.3-.8-.8s.3-.8.8-.8h4.3c.7 0 1.4.4 1.6 1.1l1.6 4c.1.3.2.7.2 1V19c.1 1.3-.7 2.1-1.7 2.1zm-5 .1H8.2c-.4 0-.8-.3-.8-.8s.3-.8.8-.8H16c.4 0 .8.3.8.8s-.4.8-.8.8z" id="Group_170"/><path class="st1" d="M22 15.8h-4c-.4 0-.8-.3-.8-.8v-4c0-.4.3-.8.8-.8h3.2c.4 0 .8.3.8.8s-.3.8-.8.8h-2.5v2.5H22c.4 0 .8.3.8.8s-.4.7-.8.7z"/><g id="Group_171"><path class="st1" d="M15 16.8H2c-.4 0-.8-.3-.8-.8s.3-.8.8-.8h12.3V7c0-.1-.1-.3-.3-.3h-1.4c-.4 0-.8-.3-.8-.8s.3-.8.8-.8H14c1 0 1.8.8 1.8 1.8v9c0 .5-.4.9-.8.9zm2.6 6c-.6 0-1.2-.2-1.7-.7-.9-.9-.9-2.4 0-3.3.9-.9 2.4-.9 3.3 0 .9.9.9 2.4 0 3.3-.4.4-1 .7-1.6.7zm0-3.2c-.2 0-.4.1-.6.2-.3.3-.3.9 0 1.2.3.3.9.3 1.2 0 .3-.3.3-.9 0-1.2-.2-.1-.4-.2-.6-.2zm-11 3.2c-.6 0-1.2-.2-1.7-.7-.4-.4-.7-1-.7-1.7 0-.6.2-1.2.7-1.7.9-.9 2.4-.9 3.3 0 .4.4.7 1 .7 1.7 0 .6-.2 1.2-.7 1.7-.4.4-1 .7-1.6.7zm0-3.2c-.2 0-.4.1-.6.2-.2.2-.2.4-.2.6s0 .5.2.6c.3.3.9.3 1.2 0 .2-.2.2-.4.2-.6s-.1-.4-.2-.6c-.2-.1-.4-.2-.6-.2z"/><path class="st1" d="M5 21.2H3c-1 0-1.8-.8-1.8-1.8V7C1.3 6 2 5.3 3 5.3h1.2c.5 0 .8.3.8.7s-.3.8-.8.8H3c-.1 0-.2.1-.2.2v12.4c0 .1.1.3.3.3h2c.4 0 .8.3.8.8s-.5.7-.9.7z"/></g><path id="Path_1809" d="M0 0h24v24H0V0z" fill="none"/></g></g></svg>