<svg xmlns="http://www.w3.org/2000/svg" width="75" height="75"><g transform="translate(0 .013)"><circle data-name="Ellipse 30" cx="37.5" cy="37.5" r="37.5" transform="translate(0 -.013)" fill="#d80027"/><g data-name="Group 9246" fill="#ffda44"><path data-name="Path 13068" d="M20.191 24.14l3.188 9.808h10.312l-8.337 6.072 3.188 9.808-8.351-6.058-8.351 6.058 3.2-9.808-8.349-6.072h10.313z"/><path data-name="Path 13069" d="M43.758 58.857l-2.437-3-3.606 1.4 2.091-3.245-2.437-3.016 3.736 1 2.106-3.245.2 3.865 3.75 1-3.62 1.385z"/><path data-name="Path 13070" d="M48.6 50.059l1.154-3.692-3.154-2.236 3.865-.058 1.135-3.692 1.255 3.663 3.865-.043-3.1 2.308 1.24 3.664-3.159-2.236z"/><path data-name="Path 13071" d="M55.139 28.77l-1.7 3.476 2.769 2.7-3.822-.548-1.7 3.462-.664-3.808-3.837-.548 3.433-1.8-.664-3.822 2.769 2.7z"/><path data-name="Path 13072" d="M43.86 18.241l-.288 3.851 3.591 1.457-3.764.923-.273 3.869-2.034-3.288-3.764.923 2.5-2.957-2.048-3.274 3.591 1.457z"/></g></g></svg>