<svg xmlns="http://www.w3.org/2000/svg" width="131.986" height="136.895"><defs><linearGradient id="a" x1=".621" y1=".435" x2=".264" y2=".954" gradientUnits="objectBoundingBox"><stop offset="0" stop-color="#3c44a6"/><stop offset="1" stop-color="#1d247a"/></linearGradient></defs><g data-name="Group 11045"><path d="M57.551 136.9a6.807 6.807 0 01-3.194-.955 150.7 150.7 0 01-21.419-16.518 150.969 150.969 0 01-18.126-20.1A74.015 74.015 0 010 57.451a57.174 57.174 0 0186.36-49.44 58.856 58.856 0 0128.062 50.463c-.192 9.624-2.832 19.507-7.848 29.373a106.176 106.176 0 01-18.244 25.18 152.764 152.764 0 01-27.45 22.708 9.685 9.685 0 01-3.329 1.159zm-.4-97.857a19.283 19.283 0 00-13.722 5.688 19.512 19.512 0 0013.714 33.314h.136A19.135 19.135 0 0070.9 72.4a19.614 19.614 0 00-6.273-31.854 19.263 19.263 0 00-7.479-1.507z" fill="url(#a)" data-name="Iconly/Bulk/Location"/><g data-name="31a78819" fill="#fff"><path data-name="Path 13065" d="M79.843 82.979v-.023a1.093 1.093 0 011.1-1.073h.294l4.453-8.624a1.1 1.1 0 01.972-.588h7.606l-.294-2.306a3.169 3.169 0 01.8-2.441 3.144 3.144 0 012.351-1.017h28.028a1.164 1.164 0 011.153 1.051l.237 1.9h-13.415a1.564 1.564 0 00-1.582 1.5 1.635 1.635 0 001.627 1.661h4.487v.012h13.156a1.167 1.167 0 011.141.859 1.088 1.088 0 01-1.051 1.378h-17.45a1.634 1.634 0 00-1.39 1.673 1.753 1.753 0 001.729 1.7h11.991a1.177 1.177 0 011.153.87 1.1 1.1 0 01-1.062 1.39h-11.89a1.65 1.65 0 00-1.39 1.944 1.762 1.762 0 001.752 1.424h14.715a1.178 1.178 0 011.153.87 1.1 1.1 0 01-1.062 1.391h-.995l.384 4.046a3.171 3.171 0 01-.8 2.441 3.143 3.143 0 01-2.351 1.017h-5.255a4.928 4.928 0 01-4.883 4.079 5.263 5.263 0 01-5.1-4.079H99.463a3.612 3.612 0 01-2.272-.871 3.128 3.128 0 01-2.2.871h-.17a4.927 4.927 0 01-4.882 4.079 5.264 5.264 0 01-5.1-4.079h-.7a3.707 3.707 0 01-3.617-3.323l-.689-7.628v-.08c.01-.001.01-.012.01-.024zm32.459 10.047a2.925 2.925 0 002.9 2.825 2.732 2.732 0 002.746-2.825 2.926 2.926 0 00-2.9-2.825 2.746 2.746 0 00-2.75 2.826zm-25.316 0a2.925 2.925 0 002.9 2.825 2.732 2.732 0 002.746-2.825 2.926 2.926 0 00-2.9-2.825 2.739 2.739 0 00-2.75 2.826zm-4.2-2.452a1.35 1.35 0 001.311 1.2h.757a4.927 4.927 0 014.826-3.831 5.261 5.261 0 015.029 3.831h.237a.989.989 0 00.723-.3.976.976 0 00.238-.758l-1.424-15.788h-3.277l.52 5.752a3.169 3.169 0 01-.8 2.441 3.142 3.142 0 01-2.35 1.017h-6.363z"/><path data-name="Path 13067" d="M99.413 94.032h-.169"/></g></g></svg>