<svg xmlns="http://www.w3.org/2000/svg" width="141.276" height="124.165"><defs><linearGradient id="a" x1=".392" y1=".559" x2=".885" y2="-.088" gradientUnits="objectBoundingBox"><stop offset="0" stop-color="#ecedef"/><stop offset="1" stop-color="#e7e8ea" stop-opacity="0"/></linearGradient></defs><g data-name="Group 11046"><g data-name="Iconly/Bold/Buy"><path data-name="Buy" d="M94.047 9.566a9.4 9.4 0 1018.8 0 9.4 9.4 0 10-18.8 0zm-69.788 0a9.4 9.4 0 1018.8 0 9.4 9.4 0 10-18.8 0zM34.68 29.211a15.575 15.575 0 00-10.717 4.274 16.238 16.238 0 00-5.04 10.544l-5.7 69.061-9.37 1.648a4.757 4.757 0 00.9 9.426 5.072 5.072 0 00.715-.056l14.8-2.274a4.767 4.767 0 003.844-4.308l1.179-14.192a3.829 3.829 0 013.783-3.554h83.779c3.649 0 6.185-1.229 8.75-4.246 2.933-3.442 2.738-8.3 2.358-10.89l-5.895-41.56a16.029 16.029 0 00-15.7-13.874zM70.6 71.593a4.708 4.708 0 014.654-4.749h17.178a4.708 4.708 0 014.654 4.749 4.656 4.656 0 01-4.654 4.755H75.251a4.656 4.656 0 01-4.651-4.755z" transform="rotate(180 62.082 62.083)" fill="url(#a)"/></g><g data-name="Iconly/Bold/Discount"><path data-name="Discount" d="M110.292 111.719a7.811 7.811 0 01-5.506-2.244l-1.886-1.89a3.847 3.847 0 00-2.739-1.132H97.5a7.788 7.788 0 01-7.779-7.779v-2.658a3.973 3.973 0 00-1.137-2.767l-1.86-1.834a7.8 7.8 0 01-.026-11l1.886-1.89a3.88 3.88 0 001.137-2.764v-2.637a7.785 7.785 0 017.779-7.772h2.662a3.9 3.9 0 002.739-1.139l1.86-1.86a7.8 7.8 0 0111.009-.023l1.888 1.883a3.85 3.85 0 002.739 1.139h2.662a7.784 7.784 0 017.777 7.772v2.664a3.837 3.837 0 001.139 2.734l1.86 1.86a7.828 7.828 0 01.051 10.983c-.017.019-.034.035-.051.052l-.026.025-1.834 1.833a3.845 3.845 0 00-1.139 2.741v2.657a7.787 7.787 0 01-7.777 7.779h-2.662a3.847 3.847 0 00-2.739 1.132l-1.862 1.86a7.714 7.714 0 01-5.504 2.275zm6.643-21.441a2.26 2.26 0 102.248 2.248 2.265 2.265 0 00-2.248-2.248zm-.014-13.289a2.238 2.238 0 00-1.59.657l-13.283 13.278a2.273 2.273 0 000 3.2 2.141 2.141 0 001.576.672 2.163 2.163 0 001.6-.672l13.287-13.274a2.259 2.259 0 00-1.59-3.861zM103.65 77a2.26 2.26 0 102.248 2.246A2.263 2.263 0 00103.65 77z" fill="#d21e27"/></g></g></svg>