<svg id="Layer_1" data-name="Layer 1" xmlns="http://www.w3.org/2000/svg" viewBox="0 0 94.99 128"><defs><linearGradient id="linear-gradient" x1="69.35" y1="124.02" x2="6.47" y2="10.87" gradientTransform="matrix(1 0 0 -1 0 130)" gradientUnits="userSpaceOnUse"><stop offset=".01" stop-color="#ecedef"/><stop offset=".57" stop-color="#ecedef" stop-opacity=".44"/><stop offset="1" stop-color="#ecedef" stop-opacity="0"/></linearGradient><style>.cls-4{fill:none;stroke-linecap:round;stroke-linejoin:round;stroke:#07142c;stroke-width:2.5px}</style></defs><path id="Path_777" data-name="Path 777" d="M63.1 122.42H13.87c-6.8 0-12.3-6.06-12.3-13.5V14.16C1.57 6.69 7.07.67 13.87.67H63.1c6.75 0 12.3 6.06 12.3 13.49v94.71c0 7.47-5.5 13.55-12.3 13.55z" fill="url(#linear-gradient)"/><path id="Path_778" data-name="Path 778" d="M37.36 95.14a2.89 2.89 0 102.9 2.86 2.9 2.9 0 00-2.9-2.89" fill="#d8d8d8"/><path id="Path_779" data-name="Path 779" d="M28.68 20.93h16.91" stroke-linecap="round" stroke-linejoin="round" stroke="#d8d8d8" stroke-width="2" fill="none"/><g id="Group_145" data-name="Group 145"><path id="Path_1638" data-name="Path 1638" class="cls-4" d="M47.54 74.51a22.75 22.75 0 0145.49 0"/><path id="Path_1639" data-name="Path 1639" class="cls-4" d="M57.29 74.51a13 13 0 0126 0"/><path id="Path_1640" data-name="Path 1640" d="M75.33 89.56V78.14a4.87 4.87 0 00-4.87-4.87 4.87 4.87 0 00-4.87 4.87v21.12l-2.88-2.92a5 5 0 00-7.14 0 5 5 0 00-.63 6.36l8.77 13.15a6.43 6.43 0 005.36 2.89h17.2a6.48 6.48 0 006.43-5.69L94.46 99a6.5 6.5 0 00-5.35-7.22z" fill="#07142c"/></g><path id="Path_1641" data-name="Path 1641" d="M34.34 73.32h58.17v58.18H34.34z" fill="none"/></svg>