<svg xmlns="http://www.w3.org/2000/svg" width="24" height="24"><defs><clipPath id="a"><circle data-name="Ellipse 138" cx="12" cy="12" r="12" fill="#fff" stroke="#707070"/></clipPath></defs><g data-name="Mask Group 17" clip-path="url(#a)"><path data-name="Path 13166" d="M-7.94 7.934h38.713V.147a.668.668 0 00-.667-.667H-7.273a.668.668 0 00-.667.667v7.787z" fill="#33ab00"/><path data-name="Path 13167" d="M-7.273 24.843h37.378a.668.668 0 00.667-.668v-7.787H-7.94v7.791a.668.668 0 00.667.664z" fill="#f4323d"/><g data-name="Group 9849" fill="#f5f5f5"><path data-name="Rectangle 1873" d="M-7.94 7.933h38.713v8.454H-7.94z"/><path data-name="Path 13168" d="M30.664 7.483a.1.1 0 01-.105-.1v-.227a.1.1 0 00-.105-.105h-.443a.105.105 0 00-.105.105v.227a.1.1 0 01-.105.1h-.87a.1.1 0 01-.105-.1v-.449a.105.105 0 01.105-.105h.438a.1.1 0 01.105.105v.012a.1.1 0 01-.105.105h-.222a.105.105 0 00-.105.105v.011a.1.1 0 00.105.105h.438a.1.1 0 00.105-.105v-.233a.105.105 0 01.105-.105h.869a.1.1 0 01.105.105v.449a.105.105 0 01-.105.1zm-.435 0h-.002a.1.1 0 01-.105-.1v-.006a.105.105 0 01.105-.105h.006a.1.1 0 01.105.105v.006a.105.105 0 01-.105.1zm.435-.88h-2.6a.1.1 0 01-.105-.105v-.012a.1.1 0 01.105-.103h2.6a.1.1 0 01.105.105V6.5a.1.1 0 01-.105.106zm-2.6.88h.438a.1.1 0 00.105-.1v-.449a.105.105 0 00-.105-.105h-.653a.1.1 0 01-.105-.105v-.233a.1.1 0 00-.105-.105h-.006a.1.1 0 00-.105.105v.676a.1.1 0 01-.105.105h-.006a.1.1 0 01-.105-.105v-.676a.1.1 0 00-.105-.105h-.006a.1.1 0 00-.105.105v.676a.1.1 0 01-.105.105h-.009a.1.1 0 01-.105-.105v-.676a.1.1 0 00-.105-.105.1.1 0 00-.105.105v.892a.1.1 0 00.105.1h.87a.1.1 0 00.105-.1v-.227a.1.1 0 01.105-.105h.438a.105.105 0 01.105.105v.011a.1.1 0 01-.105.105h-.226a.1.1 0 00-.105.105v.006a.105.105 0 00.105.1z"/><path data-name="Path 13169" d="M26.341 7.483h-.009a.1.1 0 01-.105-.1v-.227a.1.1 0 00-.105-.105h-.435a.105.105 0 00-.105.105v.227a.1.1 0 01-.105.1h-.869a.1.1 0 01-.105-.1v-.449a.1.1 0 01.105-.105h.438a.1.1 0 01.105.105v.012a.1.1 0 01-.105.105h-.222a.105.105 0 00-.105.105v.011a.1.1 0 00.105.105h.438a.1.1 0 00.105-.105v-.233a.105.105 0 01.105-.105h.87a.1.1 0 01.105.105v.449a.105.105 0 01-.106.1zm-.432 0h-.006a.1.1 0 01-.105-.1v-.006a.105.105 0 01.105-.105h.005a.1.1 0 01.105.105v.006a.105.105 0 01-.105.1zm.432-.88h-2.6a.1.1 0 01-.105-.105v-.012a.1.1 0 01.105-.105h2.6a.1.1 0 01.105.105v.012a.105.105 0 01-.105.108zm-2.6.88h.441a.1.1 0 00.105-.1v-.449a.105.105 0 00-.105-.105h-.654a.1.1 0 01-.105-.105v-.233a.1.1 0 00-.105-.105h-.01a.1.1 0 00-.105.105v.676a.1.1 0 01-.105.105h-.009a.1.1 0 01-.105-.105v-.676a.1.1 0 00-.105-.105.1.1 0 00-.105.105v.676a.1.1 0 01-.105.105h-.011a.1.1 0 01-.105-.105v-.676a.1.1 0 00-.105-.105h-.006a.105.105 0 00-.105.105v.892a.1.1 0 00.105.1h.875a.1.1 0 00.105-.1v-.227a.1.1 0 01.105-.105h.435a.105.105 0 01.105.105v.011a.1.1 0 01-.105.105h-.222a.1.1 0 00-.105.105v.006a.106.106 0 00.106.1z"/><path data-name="Path 13170" d="M22.016 7.483h-.006a.1.1 0 01-.105-.1v-.227a.105.105 0 00-.105-.105h-.438a.1.1 0 00-.105.105v.227a.1.1 0 01-.105.1h-.872a.1.1 0 01-.105-.1v-.449a.105.105 0 01.105-.105h.438a.105.105 0 01.105.105v.012a.1.1 0 01-.105.105h-.222a.105.105 0 00-.105.105v.011a.1.1 0 00.105.105h.441a.1.1 0 00.105-.105v-.233a.105.105 0 01.105-.105h.87a.1.1 0 01.105.105v.449a.1.1 0 01-.106.1zm-.432 0h-.006a.1.1 0 01-.105-.1v-.006a.105.105 0 01.105-.105h.009a.1.1 0 01.105.105v.006a.105.105 0 01-.105.1zm.432-.88h-2.6a.105.105 0 01-.105-.105v-.012a.1.1 0 01.105-.105h2.6a.1.1 0 01.105.105v.012a.1.1 0 01-.105.108zm-2.6.88h.441a.1.1 0 00.105-.1v-.449a.105.105 0 00-.105-.105h-.654a.1.1 0 01-.105-.105v-.233a.1.1 0 00-.105-.105h-.006a.1.1 0 00-.105.105v.676a.1.1 0 01-.105.105h-.009a.1.1 0 01-.105-.105v-.676a.1.1 0 00-.105-.105h-.009a.1.1 0 00-.105.105v.676a.1.1 0 01-.105.105.1.1 0 01-.105-.105v-.676a.105.105 0 00-.105-.105h-.006a.1.1 0 00-.105.105v.892a.1.1 0 00.105.1h.873a.1.1 0 00.105-.1v-.227a.1.1 0 01.105-.105h.438a.105.105 0 01.105.105v.011a.105.105 0 01-.105.105h-.225a.1.1 0 00-.105.105v.006a.105.105 0 00.099.1z"/><path data-name="Path 13171" d="M17.692 7.483h-.006a.1.1 0 01-.105-.1v-.227a.105.105 0 00-.105-.105h-.438a.105.105 0 00-.105.105v.227a.1.1 0 01-.1.1h-.873a.1.1 0 01-.105-.1v-.449a.105.105 0 01.105-.105h.441a.105.105 0 01.105.105v.012a.1.1 0 01-.105.105h-.231a.1.1 0 00-.105.105v.011a.1.1 0 00.105.105h.438a.105.105 0 00.105-.105v-.233a.105.105 0 01.105-.105h.87a.1.1 0 01.105.105v.449a.105.105 0 01-.101.1zm-.432 0h-.006a.1.1 0 01-.105-.1v-.006a.1.1 0 01.105-.105h.006a.1.1 0 01.105.105v.006a.105.105 0 01-.105.1zm.432-.88h-2.6a.1.1 0 01-.105-.105v-.012a.1.1 0 01.105-.105h2.6a.1.1 0 01.1.105v.012a.105.105 0 01-.1.108zm-2.6.88h.441a.1.1 0 00.105-.1v-.449a.105.105 0 00-.105-.105h-.663a.1.1 0 01-.105-.105v-.233a.1.1 0 00-.105-.105h-.006a.1.1 0 00-.105.105v.676a.1.1 0 01-.105.105.105.105 0 01-.105-.105v-.676a.1.1 0 00-.105-.105h-.009a.105.105 0 00-.105.105v.676a.1.1 0 01-.105.105h-.006a.1.1 0 01-.105-.105v-.676a.105.105 0 00-.105-.105h-.006a.105.105 0 00-.105.105v.892a.1.1 0 00.105.1h.87a.1.1 0 00.105-.1v-.227a.105.105 0 01.105-.105h.441a.105.105 0 01.105.105v.011a.1.1 0 01-.105.105h-.222a.1.1 0 00-.105.105v.006a.1.1 0 00.105.1z"/><path data-name="Path 13172" d="M13.368 7.483h-.006a.1.1 0 01-.105-.1v-.227a.105.105 0 00-.105-.105h-.438a.105.105 0 00-.105.105v.227a.1.1 0 01-.105.1h-.873a.1.1 0 01-.105-.1v-.449a.1.1 0 01.105-.105h.441a.1.1 0 01.1.105v.012a.1.1 0 01-.1.105h-.225a.105.105 0 00-.105.105v.011a.105.105 0 00.105.105h.438a.105.105 0 00.105-.105v-.233a.1.1 0 01.105-.105h.873a.1.1 0 01.105.105v.449a.105.105 0 01-.105.1zm-.435 0a.1.1 0 01-.105-.1v-.006a.105.105 0 01.105-.105.1.1 0 01.105.105v.006a.105.105 0 01-.105.1zm.435-.88h-2.6a.1.1 0 01-.105-.105v-.012a.1.1 0 01.105-.105h2.6a.1.1 0 01.105.105v.012a.105.105 0 01-.105.108zm-2.6.88h.441a.1.1 0 00.105-.1v-.449a.105.105 0 00-.105-.105h-.656a.1.1 0 01-.105-.105v-.233a.1.1 0 00-.105-.105h-.006a.105.105 0 00-.105.105v.676a.1.1 0 01-.105.105h-.006a.1.1 0 01-.105-.105v-.676a.1.1 0 00-.105-.105h-.006a.1.1 0 00-.105.105v.676a.105.105 0 01-.105.105h-.006a.105.105 0 01-.105-.105v-.676a.1.1 0 00-.105-.105h-.006a.1.1 0 00-.1.105v.892a.1.1 0 00.1.1h.87a.1.1 0 00.105-.1v-.227a.105.105 0 01.105-.105h.441a.105.105 0 01.105.105v.011a.1.1 0 01-.105.105h-.225a.1.1 0 00-.105.105v.006a.1.1 0 00.101.1z"/><path data-name="Path 13173" d="M9.043 7.483h-.01a.1.1 0 01-.105-.1v-.227a.105.105 0 00-.105-.105h-.438a.1.1 0 00-.1.105v.227a.1.1 0 01-.105.1h-.872a.1.1 0 01-.105-.1v-.449a.105.105 0 01.105-.105h.438a.105.105 0 01.105.105v.012a.105.105 0 01-.105.105h-.219a.105.105 0 00-.105.105v.011a.105.105 0 00.105.105h.435a.1.1 0 00.105-.105v-.233a.105.105 0 01.1-.105h.873a.105.105 0 01.105.105v.449a.105.105 0 01-.102.1zm-.435 0a.1.1 0 01-.1-.1v-.006a.105.105 0 01.1-.105.105.105 0 01.105.105v.006a.105.105 0 01-.105.1zm.435-.88h-2.6a.1.1 0 01-.1-.105v-.012a.1.1 0 01.1-.105h2.6a.105.105 0 01.105.105v.012a.105.105 0 01-.105.108zm-2.6.88h.438a.1.1 0 00.1-.1v-.449a.105.105 0 00-.1-.105h-.654a.1.1 0 01-.1-.105v-.233a.105.105 0 00-.105-.105h-.006a.1.1 0 00-.1.105v.676a.105.105 0 01-.105.105h-.006a.1.1 0 01-.105-.105v-.676a.1.1 0 00-.105-.105h-.006a.1.1 0 00-.1.105v.676a.105.105 0 01-.105.105h-.006a.1.1 0 01-.105-.105v-.676a.1.1 0 00-.105-.105h-.006a.105.105 0 00-.105.105v.892a.1.1 0 00.105.1h.87a.1.1 0 00.105-.1v-.227a.1.1 0 01.105-.105h.441a.105.105 0 01.1.105v.011a.1.1 0 01-.1.105h-.225a.1.1 0 00-.105.105v.006a.1.1 0 00.087.1z"/><path data-name="Path 13174" d="M4.714 7.483a.1.1 0 01-.105-.1v-.227a.1.1 0 00-.1-.105h-.44a.1.1 0 00-.105.105v.227a.1.1 0 01-.105.1h-.87a.1.1 0 01-.105-.1v-.449a.105.105 0 01.105-.105h.438a.105.105 0 01.105.105v.012a.1.1 0 01-.105.105h-.225a.105.105 0 00-.1.105v.011a.105.105 0 00.1.105h.444a.105.105 0 00.105-.105v-.233a.1.1 0 01.1-.105h.87a.1.1 0 01.1.105v.449a.1.1 0 01-.107.1zm-.432 0h-.009a.1.1 0 01-.105-.1v-.006a.105.105 0 01.105-.105h.009a.1.1 0 01.105.105v.006a.105.105 0 01-.101.1zm.432-.88h-2.6a.105.105 0 01-.105-.105v-.012a.105.105 0 01.105-.105h2.6a.1.1 0 01.1.105v.012a.105.105 0 01-.1.108zm-2.6.88h.438a.1.1 0 00.105-.1v-.449a.105.105 0 00-.105-.105h-.654a.1.1 0 01-.105-.105v-.233a.1.1 0 00-.105-.105h-.006a.1.1 0 00-.105.105v.676a.1.1 0 01-.1.105h-.006a.105.105 0 01-.105-.105v-.676a.1.1 0 00-.105-.105h-.006a.1.1 0 00-.1.105v.676a.105.105 0 01-.105.105h-.009a.105.105 0 01-.105-.105v-.676a.1.1 0 00-.1-.105.105.105 0 00-.105.105v.892a.1.1 0 00.105.1h.87a.1.1 0 00.105-.1v-.227a.105.105 0 01.105-.105h.435a.105.105 0 01.105.105v.011a.1.1 0 01-.105.105h-.237a.105.105 0 00-.105.105v.006a.105.105 0 00.105.1z"/><path data-name="Path 13175" d="M.391 7.483a.1.1 0 01-.1-.1v-.227a.105.105 0 00-.105-.105h-.438a.1.1 0 00-.1.105v.227a.1.1 0 01-.105.1h-.887a.1.1 0 01-.105-.1v-.449a.105.105 0 01.105-.105h.435a.105.105 0 01.105.105v.012a.105.105 0 01-.105.105h-.222a.105.105 0 00-.105.105v.011a.1.1 0 00.105.105h.441a.105.105 0 00.105-.105v-.233a.1.1 0 01.1-.105h.87a.1.1 0 01.1.105v.449a.1.1 0 01-.094.1zm-.432 0h-.003a.105.105 0 01-.105-.1v-.006a.105.105 0 01.105-.105.1.1 0 01.1.105v.006a.105.105 0 01-.1.1zm.432-.88h-2.606a.105.105 0 01-.1-.105v-.012a.1.1 0 01.1-.105H.391a.1.1 0 01.1.105v.012a.1.1 0 01-.1.108zm-2.606.88h.443a.1.1 0 00.105-.1v-.449a.105.105 0 00-.105-.105h-.654a.105.105 0 01-.105-.105v-.233a.1.1 0 00-.1-.105h-.013a.105.105 0 00-.105.105v.676a.1.1 0 01-.1.105h-.006a.105.105 0 01-.105-.105v-.676a.1.1 0 00-.1-.105.1.1 0 00-.1.105v.676a.105.105 0 01-.105.105h-.009a.1.1 0 01-.1-.105v-.676a.105.105 0 00-.105-.105h-.006a.1.1 0 00-.105.105v.892a.1.1 0 00.105.1h.872a.1.1 0 00.1-.1v-.227a.105.105 0 01.105-.105h.438a.105.105 0 01.105.105v.011a.105.105 0 01-.105.105h-.227a.1.1 0 00-.1.105v.006a.105.105 0 00.082.1z"/><path data-name="Path 13176" d="M-3.933 7.483h-.006a.105.105 0 01-.105-.1v-.227a.1.1 0 00-.105-.105h-.438a.105.105 0 00-.105.105v.227a.1.1 0 01-.1.1h-.873a.1.1 0 01-.1-.1v-.449a.1.1 0 01.1-.105h.435a.1.1 0 01.105.105v.012a.1.1 0 01-.105.105h-.222a.1.1 0 00-.105.105v.011a.105.105 0 00.105.105h.443a.105.105 0 00.105-.105v-.233a.105.105 0 01.105-.105h.87a.105.105 0 01.105.105v.449a.105.105 0 01-.109.1zm-.432 0h-.006a.1.1 0 01-.1-.1v-.006a.1.1 0 01.1-.105h.006a.105.105 0 01.105.105v.006a.105.105 0 01-.104.1zm.432-.88h-2.6a.105.105 0 01-.105-.105v-.012a.1.1 0 01.105-.105h2.6a.1.1 0 01.1.105v.012a.105.105 0 01-.1.108zm-2.6.88h.438a.1.1 0 00.105-.1v-.449a.105.105 0 00-.105-.105h-.659a.1.1 0 01-.1-.105v-.233a.1.1 0 00-.1-.105.105.105 0 00-.105.105v.676a.1.1 0 01-.1.105h-.012a.1.1 0 01-.1-.105v-.676a.105.105 0 00-.105-.105.1.1 0 00-.1.105v.676a.105.105 0 01-.105.105h-.006a.1.1 0 01-.1-.105v-.676a.105.105 0 00-.105-.105h-.011a.1.1 0 00-.105.105v.892a.1.1 0 00.105.1h.87a.1.1 0 00.1-.1v-.227a.1.1 0 01.1-.105h.443a.1.1 0 01.105.105v.011a.105.105 0 01-.105.105h-.222a.105.105 0 00-.105.105v.006a.105.105 0 00.083.1z"/><path data-name="Path 13177" d="M30.664 8.156h-1.733a.1.1 0 01-.105-.105v-.233a.1.1 0 01.105-.1h1.733a.1.1 0 01.105.1v.233a.1.1 0 01-.105.105zm-2.165 0h-1.73a.1.1 0 01-.105-.105v-.233a.1.1 0 01.105-.1h1.734a.1.1 0 01.105.1v.233a.1.1 0 01-.105.105z"/><path data-name="Path 13178" d="M26.341 8.156h-1.733a.1.1 0 01-.105-.105v-.233a.1.1 0 01.105-.1h1.734a.1.1 0 01.105.1v.233a.105.105 0 01-.106.105zm-2.16 0h-1.739a.1.1 0 01-.105-.105v-.233a.1.1 0 01.105-.1h1.739a.1.1 0 01.105.1v.233a.1.1 0 01-.105.105z"/><path data-name="Path 13179" d="M22.016 8.156H20.28a.1.1 0 01-.105-.105v-.233a.1.1 0 01.105-.1h1.736a.1.1 0 01.105.1v.233a.1.1 0 01-.105.105zm-2.162 0h-1.736a.1.1 0 01-.105-.105v-.233a.1.1 0 01.105-.1h1.736a.1.1 0 01.105.1v.233a.105.105 0 01-.105.105z"/><path data-name="Path 13180" d="M17.692 8.156h-1.736a.1.1 0 01-.105-.105v-.233a.1.1 0 01.105-.1h1.736a.1.1 0 01.1.1v.233a.105.105 0 01-.1.105zm-2.16 0h-1.739a.1.1 0 01-.105-.105v-.233a.1.1 0 01.105-.1h1.739a.1.1 0 01.105.1v.233a.1.1 0 01-.105.105z"/><path data-name="Path 13181" d="M13.368 8.156h-1.736a.1.1 0 01-.105-.105v-.233a.1.1 0 01.105-.1h1.736a.1.1 0 01.105.1v.233a.105.105 0 01-.105.105zm-2.162 0H9.47a.1.1 0 01-.105-.105v-.233a.1.1 0 01.105-.1h1.736a.1.1 0 01.1.1v.233a.105.105 0 01-.101.105z"/><path data-name="Path 13182" d="M9.043 8.156H7.307a.105.105 0 01-.105-.105v-.233a.1.1 0 01.105-.1h1.736a.1.1 0 01.105.1v.233a.105.105 0 01-.105.105zm-2.165 0H5.144a.1.1 0 01-.1-.105v-.233a.1.1 0 01.1-.1h1.734a.1.1 0 01.1.1v.233a.1.1 0 01-.1.105z"/><path data-name="Path 13183" d="M4.715 8.156H2.979a.1.1 0 01-.105-.105v-.233a.1.1 0 01.105-.1h1.736a.1.1 0 01.105.1v.233a.105.105 0 01-.105.105zm-2.165 0H.817a.1.1 0 01-.105-.105v-.233a.1.1 0 01.105-.1H2.55a.1.1 0 01.105.1v.233a.105.105 0 01-.102.105z"/><path data-name="Path 13184" d="M.391 8.156h-1.735a.105.105 0 01-.105-.105v-.233a.1.1 0 01.105-.1H.39a.1.1 0 01.1.1v.233a.1.1 0 01-.099.105zm-2.162 0h-1.736a.105.105 0 01-.105-.105v-.233a.1.1 0 01.105-.1h1.736a.1.1 0 01.105.1v.233a.105.105 0 01-.106.105z"/><path data-name="Path 13185" d="M-3.933 8.156h-1.736a.105.105 0 01-.1-.105v-.233a.1.1 0 01.1-.1h1.736a.1.1 0 01.1.1v.233a.105.105 0 01-.1.105zm-2.162 0h-1.739a.1.1 0 01-.105-.105v-.233a.105.105 0 01.105-.1h1.739a.1.1 0 01.1.1v.233a.1.1 0 01-.101.105z"/><path data-name="Path 13186" d="M-7.835 16.835h.006a.105.105 0 01.105.105v.227a.1.1 0 00.105.105h.441a.105.105 0 00.105-.105v-.227a.1.1 0 01.1-.105h.87a.105.105 0 01.105.105v.449a.105.105 0 01-.105.105h-.438a.105.105 0 01-.105-.105v-.012a.1.1 0 01.105-.105h.222a.1.1 0 00.1-.105v-.011a.1.1 0 00-.1-.105h-.438a.105.105 0 00-.1.105v.233a.1.1 0 01-.105.105h-.872a.1.1 0 01-.1-.105v-.449a.105.105 0 01.099-.105zm.435 0h.006a.1.1 0 01.1.105v.006a.1.1 0 01-.1.105h-.008a.1.1 0 01-.105-.105v-.006a.105.105 0 01.105-.105zm-.435.881h2.6a.105.105 0 01.105.105v.011a.105.105 0 01-.105.105h-2.6a.1.1 0 01-.105-.105v-.011a.1.1 0 01.105-.105zm2.6-.881h-.438a.105.105 0 00-.105.105v.449a.105.105 0 00.105.105h.654a.105.105 0 01.105.105v.233a.1.1 0 00.105.105h.006a.105.105 0 00.105-.105v-.676a.1.1 0 01.1-.105h.006a.105.105 0 01.105.105v.676a.1.1 0 00.1.105h.006a.105.105 0 00.105-.105v-.676a.1.1 0 01.1-.105h.009a.1.1 0 01.1.105v.676a.1.1 0 00.105.105.105.105 0 00.105-.105v-.892a.1.1 0 00-.105-.105h-.87a.1.1 0 00-.105.105v.227a.105.105 0 01-.105.105h-.438a.105.105 0 01-.105-.105v-.011a.105.105 0 01.105-.105h.222a.105.105 0 00.105-.105v-.006a.105.105 0 00-.079-.105z"/><path data-name="Path 13187" d="M-3.508 16.835h.009a.105.105 0 01.1.105v.227a.1.1 0 00.1.105h.435a.1.1 0 00.105-.105v-.227a.105.105 0 01.105-.105h.87a.105.105 0 01.1.105v.449a.1.1 0 01-.1.105h-.438a.105.105 0 01-.105-.105v-.012a.1.1 0 01.105-.105H-2a.105.105 0 00.105-.105v-.011A.105.105 0 00-2 17.051h-.438a.105.105 0 00-.105.105v.233a.1.1 0 01-.105.105h-.87a.105.105 0 01-.1-.105v-.449a.105.105 0 01.11-.105zm.432 0h.006a.105.105 0 01.105.105v.006a.1.1 0 01-.105.105h-.006a.1.1 0 01-.105-.105v-.006a.105.105 0 01.105-.105zm-.432.881h2.6a.1.1 0 01.105.105v.011a.1.1 0 01-.105.105h-2.6a.1.1 0 01-.1-.105v-.011a.105.105 0 01.1-.105zm2.6-.881h-.44a.105.105 0 00-.105.105v.449a.105.105 0 00.105.105h.654a.1.1 0 01.1.105v.233a.1.1 0 00.1.105h.009a.105.105 0 00.105-.105v-.676a.1.1 0 01.1-.105h.009a.105.105 0 01.105.105v.676a.1.1 0 00.1.105.105.105 0 00.105-.105v-.676a.1.1 0 01.1-.105h.009a.105.105 0 01.105.105v.676a.1.1 0 00.1.105h.006a.105.105 0 00.105-.105v-.892a.105.105 0 00-.105-.105h-.875a.1.1 0 00-.1.105v.227a.105.105 0 01-.105.105h-.435a.105.105 0 01-.1-.105v-.011a.1.1 0 01.1-.105h.222a.1.1 0 00.105-.105v-.006a.105.105 0 00-.079-.105z"/><path data-name="Path 13188" d="M.817 16.835h.006a.105.105 0 01.105.105v.227a.1.1 0 00.1.105h.438a.105.105 0 00.105-.105v-.227a.105.105 0 01.1-.105h.872a.105.105 0 01.105.105v.449a.105.105 0 01-.105.105h-.438a.105.105 0 01-.1-.105v-.012a.1.1 0 01.1-.105h.222a.105.105 0 00.105-.105v-.011a.105.105 0 00-.105-.105h-.441a.105.105 0 00-.105.105v.233a.1.1 0 01-.105.105h-.87a.1.1 0 01-.1-.105v-.449a.1.1 0 01.111-.105zm.432 0h.006a.105.105 0 01.105.105v.006a.1.1 0 01-.105.105h-.006a.1.1 0 01-.105-.105v-.006a.105.105 0 01.105-.105zm-.432.881h2.6a.1.1 0 01.105.105v.011a.1.1 0 01-.105.105h-2.6a.1.1 0 01-.105-.105v-.011a.1.1 0 01.105-.105zm2.6-.881h-.441a.105.105 0 00-.105.105v.449a.105.105 0 00.105.105h.654a.105.105 0 01.105.105v.233a.1.1 0 00.1.105h.006a.105.105 0 00.105-.105v-.676a.1.1 0 01.1-.105h.009a.105.105 0 01.105.105v.676a.1.1 0 00.1.105h.009a.105.105 0 00.105-.105v-.676a.1.1 0 01.1-.105.105.105 0 01.105.105v.676a.1.1 0 00.1.105h.006a.105.105 0 00.105-.105v-.892a.105.105 0 00-.105-.105h-.873a.1.1 0 00-.1.105v.227a.105.105 0 01-.105.105h-.438a.105.105 0 01-.105-.105v-.011a.105.105 0 01.105-.105h.225a.105.105 0 00.105-.105v-.006a.105.105 0 00-.079-.105z"/><path data-name="Path 13189" d="M5.141 16.835h.006a.105.105 0 01.105.105v.227a.1.1 0 00.105.105h.438a.1.1 0 00.105-.105v-.227a.105.105 0 01.105-.105h.873a.105.105 0 01.105.105v.449a.105.105 0 01-.105.105h-.441a.1.1 0 01-.1-.105v-.012a.1.1 0 01.1-.105h.222a.1.1 0 00.1-.105v-.011a.1.1 0 00-.1-.105h-.438a.105.105 0 00-.105.105v.233a.105.105 0 01-.105.105h-.87a.1.1 0 01-.105-.105v-.449a.105.105 0 01.105-.105zm.432 0h.006a.105.105 0 01.105.105v.006a.1.1 0 01-.105.105h-.006a.1.1 0 01-.105-.105v-.006a.105.105 0 01.105-.105zm-.432.881h2.6a.1.1 0 01.105.105v.011a.1.1 0 01-.105.105h-2.6a.1.1 0 01-.105-.105v-.011a.105.105 0 01.105-.105zm2.6-.881H7.3a.1.1 0 00-.105.105v.449a.1.1 0 00.105.105h.659a.1.1 0 01.105.105v.233a.105.105 0 00.105.105h.006a.105.105 0 00.105-.105v-.676a.105.105 0 01.105-.105.105.105 0 01.105.105v.676a.1.1 0 00.1.105h.009a.105.105 0 00.105-.105v-.676a.105.105 0 01.105-.105h.006a.1.1 0 01.1.105v.676a.105.105 0 00.105.105h.006a.105.105 0 00.105-.105v-.892a.105.105 0 00-.105-.105h-.87a.1.1 0 00-.105.105v.227a.1.1 0 01-.105.105h-.441a.105.105 0 01-.105-.105v-.011a.105.105 0 01.105-.105h.222a.105.105 0 00.105-.105v-.006a.105.105 0 00-.091-.105z"/><path data-name="Path 13190" d="M9.466 16.835h.006a.105.105 0 01.105.105v.227a.1.1 0 00.105.105h.438a.1.1 0 00.105-.105v-.227a.105.105 0 01.105-.105h.873a.105.105 0 01.105.105v.449a.105.105 0 01-.105.105h-.441a.1.1 0 01-.1-.105v-.012a.1.1 0 01.1-.105h.225a.1.1 0 00.105-.105v-.011a.1.1 0 00-.105-.105h-.438a.1.1 0 00-.105.105v.233a.105.105 0 01-.105.105h-.873a.105.105 0 01-.105-.105v-.449a.105.105 0 01.105-.105zm.435 0a.105.105 0 01.105.105v.006a.1.1 0 01-.105.105.1.1 0 01-.105-.105v-.006a.105.105 0 01.105-.105zm-.435.881h2.6a.105.105 0 01.105.105v.011a.1.1 0 01-.105.105h-2.6a.105.105 0 01-.105-.105v-.011a.105.105 0 01.105-.105zm2.6-.881h-.441a.105.105 0 00-.105.105v.449a.105.105 0 00.105.105h.657a.1.1 0 01.105.105v.233a.105.105 0 00.105.105h.006a.105.105 0 00.105-.105v-.676a.1.1 0 01.1-.105h.006a.1.1 0 01.105.105v.676a.105.105 0 00.105.105h.006a.105.105 0 00.105-.105v-.676a.1.1 0 01.105-.105h.006a.1.1 0 01.105.105v.676a.1.1 0 00.105.105h.006a.105.105 0 00.105-.105v-.892a.105.105 0 00-.105-.105h-.87a.1.1 0 00-.105.105v.227a.105.105 0 01-.105.105h-.441a.105.105 0 01-.105-.105v-.011a.1.1 0 01.105-.105h.225a.1.1 0 00.105-.105v-.006a.105.105 0 00-.097-.105z"/><path data-name="Path 13191" d="M13.79 16.835h.006a.105.105 0 01.105.105v.227a.1.1 0 00.105.105h.438a.1.1 0 00.1-.105v-.227a.105.105 0 01.105-.105h.873a.1.1 0 01.1.105v.449a.1.1 0 01-.1.105h-.438a.1.1 0 01-.1-.105v-.012a.1.1 0 01.1-.105h.219a.1.1 0 00.1-.105v-.011a.1.1 0 00-.1-.105h-.435a.105.105 0 00-.105.105v.233a.1.1 0 01-.105.105h-.873a.1.1 0 01-.105-.105v-.449a.105.105 0 01.11-.105zm.435 0a.105.105 0 01.105.105v.006a.1.1 0 01-.105.105.1.1 0 01-.105-.105v-.006a.105.105 0 01.105-.105zm-.435.881h2.6a.1.1 0 01.105.105v.011a.1.1 0 01-.105.105h-2.6a.105.105 0 01-.105-.105v-.011a.1.1 0 01.105-.105zm2.6-.881h-.438a.105.105 0 00-.105.105v.449a.1.1 0 00.105.105h.654a.105.105 0 01.105.105v.233a.1.1 0 00.105.105h.006a.105.105 0 00.105-.105v-.676a.105.105 0 01.105-.105h.006a.1.1 0 01.105.105v.676a.105.105 0 00.105.105h.006a.1.1 0 00.1-.105v-.676a.105.105 0 01.105-.105h.006a.105.105 0 01.105.105v.676a.105.105 0 00.105.105h.006a.1.1 0 00.1-.105v-.892a.105.105 0 00-.1-.105h-.87a.1.1 0 00-.105.105v.227a.105.105 0 01-.105.105h-.441a.105.105 0 01-.105-.105v-.011a.105.105 0 01.105-.105h.225a.1.1 0 00.1-.105v-.006a.1.1 0 00-.092-.105z"/><path data-name="Path 13192" d="M18.115 16.835h.006a.105.105 0 01.105.105v.227a.1.1 0 00.105.105h.441a.105.105 0 00.105-.105v-.227a.105.105 0 01.105-.105h.87a.105.105 0 01.105.105v.449a.1.1 0 01-.105.105h-.438a.1.1 0 01-.105-.105v-.012a.1.1 0 01.105-.105h.225a.105.105 0 00.105-.105v-.011a.105.105 0 00-.105-.105h-.443a.1.1 0 00-.1.105v.233a.105.105 0 01-.105.105h-.87a.105.105 0 01-.105-.105v-.449a.1.1 0 01.099-.105zm.432 0h.004a.1.1 0 01.105.105v.006a.1.1 0 01-.105.105.1.1 0 01-.105-.105v-.006a.105.105 0 01.105-.105zm-.432.881h2.6a.105.105 0 01.105.105v.011a.1.1 0 01-.105.105h-2.6a.1.1 0 01-.105-.105v-.011a.105.105 0 01.105-.105zm2.6-.881h-.438a.105.105 0 00-.105.105v.449a.105.105 0 00.105.105h.654a.105.105 0 01.105.105v.233a.1.1 0 00.1.105h.006a.105.105 0 00.105-.105v-.676a.105.105 0 01.105-.105h.006a.105.105 0 01.105.105v.676a.1.1 0 00.105.105h.006a.105.105 0 00.105-.105v-.676a.105.105 0 01.105-.105h.009a.105.105 0 01.105.105v.676a.1.1 0 00.105.105.105.105 0 00.105-.105v-.892a.105.105 0 00-.105-.105h-.87a.1.1 0 00-.105.105v.227a.105.105 0 01-.105.105h-.435a.105.105 0 01-.105-.105v-.011a.105.105 0 01.105-.105h.219a.1.1 0 00.105-.105v-.006a.105.105 0 00-.094-.105z"/><path data-name="Path 13193" d="M22.442 16.835a.105.105 0 01.105.105v.227a.1.1 0 00.105.105h.438a.1.1 0 00.105-.105v-.227a.105.105 0 01.105-.105h.872a.105.105 0 01.105.105v.449a.105.105 0 01-.105.105h-.435a.1.1 0 01-.105-.105v-.012a.1.1 0 01.105-.105h.222a.105.105 0 00.105-.105v-.011a.105.105 0 00-.105-.105h-.441a.105.105 0 00-.105.105v.233a.1.1 0 01-.105.105h-.87a.1.1 0 01-.105-.105v-.449a.105.105 0 01.109-.105zm.432 0h.006a.105.105 0 01.105.105v.006a.1.1 0 01-.105.105h-.006a.1.1 0 01-.105-.105v-.006a.105.105 0 01.105-.105zm-.432.881h2.606a.105.105 0 01.105.105v.011a.1.1 0 01-.105.105h-2.606a.1.1 0 01-.105-.105v-.011a.105.105 0 01.105-.105zm2.606-.881h-.44a.105.105 0 00-.105.105v.449a.105.105 0 00.105.105h.654a.1.1 0 01.105.105v.233a.1.1 0 00.105.105h.009a.105.105 0 00.105-.105v-.676a.105.105 0 01.105-.105h.006a.105.105 0 01.105.105v.676a.1.1 0 00.105.105.105.105 0 00.105-.105v-.676a.105.105 0 01.105-.105h.009a.105.105 0 01.105.105v.676a.1.1 0 00.105.105h.006a.105.105 0 00.105-.105v-.892a.1.1 0 00-.105-.105h-.874a.1.1 0 00-.105.105v.227a.105.105 0 01-.105.105h-.438a.105.105 0 01-.105-.105v-.011a.105.105 0 01.105-.105h.227a.1.1 0 00.105-.105v-.006a.1.1 0 00-.104-.105z"/><path data-name="Path 13194" d="M26.766 16.835h.006a.105.105 0 01.105.105v.227a.1.1 0 00.105.105h.438a.1.1 0 00.105-.105v-.227a.105.105 0 01.105-.105h.872a.105.105 0 01.105.105v.449a.105.105 0 01-.105.105h-.435a.1.1 0 01-.105-.105v-.012a.1.1 0 01.105-.105h.222a.105.105 0 00.105-.105v-.011a.105.105 0 00-.105-.105h-.443a.1.1 0 00-.105.105v.233a.105.105 0 01-.105.105h-.87a.1.1 0 01-.105-.105v-.449a.105.105 0 01.105-.105zm.432 0h.006a.105.105 0 01.105.105v.006a.1.1 0 01-.105.105h-.006a.1.1 0 01-.105-.105v-.006a.105.105 0 01.105-.105zm-.432.881h2.6a.105.105 0 01.105.105v.011a.1.1 0 01-.105.105h-2.6a.1.1 0 01-.105-.105v-.011a.105.105 0 01.105-.105zm2.6-.881h-.438a.105.105 0 00-.105.105v.449a.105.105 0 00.105.105h.659a.1.1 0 01.105.105v.233a.1.1 0 00.105.105.105.105 0 00.105-.105v-.676a.105.105 0 01.105-.105h.012a.1.1 0 01.105.105v.676a.1.1 0 00.105.105.105.105 0 00.105-.105v-.676a.105.105 0 01.105-.105h.006a.1.1 0 01.105.105v.676a.1.1 0 00.105.105h.011a.105.105 0 00.105-.105v-.892a.105.105 0 00-.105-.105h-.87a.1.1 0 00-.105.105v.227a.105.105 0 01-.105.105h-.442a.105.105 0 01-.105-.105v-.011a.105.105 0 01.105-.105h.222a.1.1 0 00.105-.105v-.006a.1.1 0 00-.105-.105z"/><path data-name="Path 13195" d="M-7.835 16.165h1.733a.105.105 0 01.1.105v.233a.1.1 0 01-.1.105h-1.736a.105.105 0 01-.1-.105v-.233a.1.1 0 01.103-.105zm2.165 0h1.734a.105.105 0 01.105.105v.233a.105.105 0 01-.105.105H-5.67a.1.1 0 01-.1-.105v-.233a.1.1 0 01.1-.105z"/><path data-name="Path 13196" d="M-3.508 16.165h1.734a.105.105 0 01.105.105v.233a.105.105 0 01-.105.105h-1.734a.1.1 0 01-.1-.105v-.233a.105.105 0 01.1-.105zm2.16 0H.391a.105.105 0 01.105.105v.233a.105.105 0 01-.105.105h-1.736a.105.105 0 01-.1-.105v-.233a.1.1 0 01.1-.105z"/><path data-name="Path 13197" d="M.817 16.165h1.736a.1.1 0 01.1.105v.233a.1.1 0 01-.1.105H.817a.105.105 0 01-.105-.105v-.233a.105.105 0 01.105-.105zm2.162 0h1.736a.1.1 0 01.1.105v.233a.1.1 0 01-.1.105H2.979a.105.105 0 01-.105-.105v-.233a.105.105 0 01.105-.105z"/><path data-name="Path 13198" d="M5.141 16.165h1.736a.105.105 0 01.105.105v.233a.105.105 0 01-.105.105H5.141a.105.105 0 01-.105-.105v-.233a.105.105 0 01.105-.105zm2.159 0h1.739a.105.105 0 01.105.105v.233a.105.105 0 01-.105.105H7.3a.105.105 0 01-.105-.105v-.233a.1.1 0 01.106-.105z"/><path data-name="Path 13199" d="M9.466 16.165h1.736a.105.105 0 01.105.105v.233a.105.105 0 01-.105.105H9.466a.1.1 0 01-.105-.105v-.233a.105.105 0 01.105-.105zm2.162 0h1.736a.1.1 0 01.105.105v.233a.105.105 0 01-.105.105h-1.736a.105.105 0 01-.105-.105v-.233a.105.105 0 01.105-.105z"/><path data-name="Path 13200" d="M13.79 16.165h1.741a.105.105 0 01.105.105v.233a.105.105 0 01-.105.105h-1.736a.1.1 0 01-.105-.105v-.233a.1.1 0 01.1-.105zm2.165 0h1.734a.1.1 0 01.105.105v.233a.105.105 0 01-.105.105h-1.734a.1.1 0 01-.105-.105v-.233a.105.105 0 01.105-.105z"/><path data-name="Path 13201" d="M18.115 16.165h1.733a.1.1 0 01.105.105v.233a.1.1 0 01-.105.105h-1.736a.1.1 0 01-.105-.105v-.233a.105.105 0 01.108-.105zm2.165 0h1.733a.1.1 0 01.105.105v.233a.1.1 0 01-.105.105H20.28a.105.105 0 01-.105-.105v-.233a.105.105 0 01.105-.105z"/><path data-name="Path 13202" d="M22.442 16.165h1.733a.105.105 0 01.105.105v.233a.105.105 0 01-.105.105h-1.733a.1.1 0 01-.105-.105v-.233a.105.105 0 01.105-.105zm2.162 0h1.736a.1.1 0 01.105.105v.233a.105.105 0 01-.105.105h-1.732a.1.1 0 01-.105-.105v-.233a.105.105 0 01.105-.105z"/><path data-name="Path 13203" d="M26.766 16.165h1.736a.1.1 0 01.105.105v.233a.105.105 0 01-.105.105h-1.736a.1.1 0 01-.105-.109v-.233a.105.105 0 01.105-.101zm2.162 0h1.739a.1.1 0 01.105.105v.233a.105.105 0 01-.105.105h-1.739a.1.1 0 01-.105-.105v-.233a.105.105 0 01.105-.105z"/></g><g data-name="Group 9850" fill="#ff4b55"><path data-name="Path 13204" d="M11.968 9.006a2.45 2.45 0 00-1.36-.143.572.572 0 01-.156-.555.659.659 0 00.911.216c.016-.011.037-.021.05-.032a.67.67 0 00.929-.132.55.55 0 01.034-.053.57.57 0 01-.408.699z"/><path data-name="Path 13205" d="M10.739 15.174a3.6 3.6 0 01-.774-5.777.043.043 0 01.065.055 3.916 3.916 0 00.982 5.163l-.077-4.942a.219.219 0 01.081-.173l.263-.212a.218.218 0 01.275 0l.259.211a.218.218 0 01.08.172l-.075 4.946a3.921 3.921 0 00.985-5.165.043.043 0 01.065-.055 3.6 3.6 0 01-.773 5.777 3.987 3.987 0 001.407.223.043.043 0 01.012.085 3.579 3.579 0 01-1.827.066l-.232.449a.043.043 0 01-.077 0l-.233-.449a3.585 3.585 0 01-1.828-.066.043.043 0 01.012-.085 4 4 0 001.41-.223z"/><path data-name="Path 13206" d="M7.85 10.58a3.064 3.064 0 011.685-1.445.044.044 0 01.043.074 3.906 3.906 0 00-.677 5.316c.063.085.132.174.2.248A3.089 3.089 0 017.85 10.58z"/><path data-name="Path 13207" d="M13.931 14.525a3.906 3.906 0 00-.674-5.316.044.044 0 01.043-.074 3.1 3.1 0 01.43 5.637 2.285 2.285 0 00.201-.247z"/></g></g></svg>